<?xml version="1.0" encoding="utf-8"?>
<!-- Generator: Adobe Illustrator 17.0.0, SVG Export Plug-In . SVG Version: 6.00 Build 0)  -->
<!DOCTYPE svg PUBLIC "-//W3C//DTD SVG 1.1//EN" "http://www.w3.org/Graphics/SVG/1.1/DTD/svg11.dtd">
<svg version="1.1" id="Layer_1" xmlns="http://www.w3.org/2000/svg" xmlns:xlink="http://www.w3.org/1999/xlink" x="0px" y="0px"
	 width="277.25px" height="89.808px" viewBox="0 0 277.25 89.808" enable-background="new 0 0 277.25 89.808" xml:space="preserve">
<g id="Background">
</g>
<g id="Guides">
</g>
<g>
	<path fill="#259FEA" d="M149.098,75.297c-0.831,0.444-1.931,0.668-3.318,0.668c-2.494,0-3.736-0.928-3.736-2.785
		c0-1.199,0.591-2.078,1.79-2.646c0.756-0.345,1.863-0.589,3.342-0.746v-0.483c0-1.018-0.609-1.511-1.822-1.511
		c-0.763,0-1.534,0.181-2.3,0.558l-0.483-1.197c0.953-0.461,2.001-0.692,3.145-0.692c2.257,0,3.385,1.051,3.385,3.163v5.671H149.098
		z M147.175,74.543v-3.761c-1.003,0.116-1.725,0.298-2.15,0.529c-0.682,0.376-1.033,0.968-1.033,1.788
		c0,1.143,0.654,1.709,1.938,1.709C146.421,74.804,146.837,74.723,147.175,74.543"/>
	<path fill="#259FEA" d="M158.564,71.21c0,1.378-0.285,2.463-0.869,3.283c-0.664,0.977-1.647,1.472-2.947,1.472
		c-1.28,0-2.265-0.494-2.938-1.472c-0.568-0.82-0.864-1.904-0.864-3.283c0-1.357,0.296-2.45,0.864-3.285
		c0.674-0.969,1.643-1.464,2.938-1.464c1.314,0,2.283,0.495,2.947,1.464C158.278,68.759,158.564,69.854,158.564,71.21
		 M156.502,71.21c0-2.293-0.583-3.441-1.756-3.441c-1.165,0-1.741,1.148-1.741,3.441c0,2.224,0.575,3.337,1.741,3.337
		C155.92,74.546,156.502,73.432,156.502,71.21"/>
	<path fill="#259FEA" d="M172.943,71.176c0,0.606-0.116,1.181-0.352,1.706c-0.238,0.526-0.568,0.987-0.986,1.379
		c-0.427,0.387-0.943,0.691-1.536,0.921c-0.584,0.221-1.239,0.326-1.962,0.326c-0.897,0-1.644-0.065-2.265-0.195
		c-0.627-0.146-1.143-0.343-1.545-0.623l0.968-3.096c0.189,0.138,0.445,0.27,0.805,0.427c0.36,0.122,0.739,0.205,1.116,0.205
		c0.328,0,0.59-0.066,0.765-0.197c0.181-0.122,0.268-0.298,0.268-0.511c0-0.243-0.098-0.475-0.285-0.687
		c-0.189-0.187-0.55-0.411-1.068-0.666c-0.475-0.239-0.888-0.5-1.19-0.811c-0.312-0.298-0.561-0.61-0.749-0.936
		c-0.179-0.331-0.311-0.675-0.385-1.003c-0.075-0.344-0.116-0.666-0.116-0.985c0-0.607,0.116-1.183,0.32-1.7
		c0.23-0.543,0.526-1.012,0.928-1.402c0.393-0.406,0.884-0.725,1.461-0.955c0.566-0.229,1.207-0.347,1.919-0.347
		c0.815,0,1.496,0.082,2.061,0.247c0.567,0.165,1.028,0.345,1.382,0.559l-0.896,2.694c-0.23-0.149-0.491-0.27-0.81-0.379
		c-0.323-0.098-0.668-0.165-1.036-0.165c-0.666,0-1.008,0.247-1.008,0.725c0,0.278,0.1,0.524,0.295,0.722
		c0.204,0.191,0.566,0.427,1.1,0.69c0.607,0.31,1.1,0.625,1.461,0.943c0.369,0.323,0.658,0.649,0.847,0.977
		c0.195,0.329,0.337,0.676,0.393,1.034C172.912,70.435,172.943,70.799,172.943,71.176"/>
	<path fill="#259FEA" d="M182.83,70.142l-6.292,0.902c0.191,1.903,1.129,2.858,2.803,2.858c0.991,0,1.854-0.197,2.593-0.575
		l0.551,1.463c-0.878,0.476-2.004,0.719-3.391,0.719c-1.571,0-2.776-0.498-3.607-1.516c-0.772-0.928-1.159-2.218-1.159-3.827
		c0-1.537,0.332-2.767,1.012-3.687c0.781-1.067,1.906-1.609,3.376-1.609c1.494,0,2.585,0.526,3.291,1.569
		C182.601,67.339,182.88,68.566,182.83,70.142 M180.654,69.214c0-1.947-0.674-2.917-2.021-2.917c-0.847,0-1.461,0.411-1.848,1.224
		c-0.278,0.598-0.401,1.387-0.376,2.342L180.654,69.214z"/>
	<path fill="#259FEA" d="M198.794,75.331h-2.316v-7.294c0-1.116-0.59-1.674-1.742-1.674c-0.665,0-1.248,0.23-1.706,0.697v8.272
		h-2.325v-7.343c0-1.099-0.641-1.625-1.929-1.625c-0.558,0-1.057,0.082-1.517,0.28v8.688h-2.326v-9.716
		c1.028-0.5,2.308-0.746,3.843-0.746c1.454,0,2.523,0.379,3.204,1.135c0.803-0.756,1.913-1.135,3.3-1.135
		c1.018,0,1.855,0.264,2.488,0.805c0.682,0.557,1.027,1.33,1.027,2.342L198.794,75.331L198.794,75.331z"/>
	<path fill="#259FEA" d="M211.373,67.595c-0.049-0.263-0.092-0.525-0.132-0.781c-0.032-0.253-0.058-0.451-0.075-0.584
		c-0.016-0.13-0.016-0.204-0.016-0.227h-0.041c0,0-0.017,0.155-0.066,0.475c-0.022,0.331-0.1,0.691-0.197,1.099l-0.895,3.583h2.208
		L211.373,67.595z M213.072,75.331l-0.361-1.709h-3.348l-0.419,1.709h-3.908l4.08-13.108h4.436l4.072,13.108
		C217.622,75.331,213.072,75.331,213.072,75.331z"/>
	<path fill="#259FEA" d="M227.006,69.962c0,1.682-0.395,3.012-1.191,3.975c-0.878,1.056-2.134,1.572-3.777,1.572
		c-1.495,0-2.617-0.243-3.382-0.736V60.386h2.299v4.959c0.615-0.28,1.28-0.412,2.017-0.412c1.315,0,2.359,0.516,3.091,1.575
		C226.703,67.429,227.006,68.566,227.006,69.962 M224.707,70.083c0-2.538-0.789-3.803-2.367-3.803c-0.55,0-1.017,0.108-1.386,0.312
		v7.293c0.321,0.132,0.713,0.195,1.183,0.195C223.852,74.083,224.707,72.751,224.707,70.083"/>
	<path fill="#259FEA" d="M234.077,64.884l-0.461,1.709c-0.342-0.116-0.698-0.182-1.067-0.182c-0.443,0-0.814,0.093-1.1,0.248v8.672
		h-2.324v-9.716C230.248,65.066,231.901,64.829,234.077,64.884"/>
	<path fill="#259FEA" d="M238.133,62.143c0,0.327-0.123,0.606-0.369,0.82c-0.263,0.214-0.559,0.331-0.897,0.331
		c-0.352,0-0.647-0.116-0.894-0.331c-0.263-0.214-0.397-0.494-0.397-0.82c0-0.312,0.133-0.609,0.397-0.821
		c0.246-0.214,0.541-0.328,0.894-0.328c0.337,0,0.634,0.098,0.897,0.322C238.01,61.534,238.133,61.814,238.133,62.143
		 M238.018,75.331h-2.324V65.067h2.324V75.331z"/>
	<path fill="#259FEA" d="M248.505,75.485c0,1.322-0.369,2.342-1.103,3.064c-0.736,0.724-1.765,1.083-3.101,1.083
		c-1.529,0-2.703-0.243-3.508-0.725l0.648-1.524c0.739,0.396,1.544,0.599,2.455,0.599c1.575,0,2.357-0.762,2.357-2.292v-0.655
		c-0.444,0.279-1.086,0.408-1.915,0.408c-1.352,0-2.402-0.524-3.145-1.558c-0.665-0.904-0.993-2.054-0.993-3.466
		c0-1.692,0.395-3.022,1.199-3.982c0.862-1.043,2.121-1.569,3.769-1.569c1.469,0,2.579,0.246,3.337,0.746V75.485L248.505,75.485z
		 M246.255,73.77v-7.277c-0.264-0.165-0.657-0.237-1.199-0.237c-1.694,0-2.546,1.356-2.546,4.066c0,2.512,0.814,3.761,2.431,3.761
		C245.45,74.083,245.894,73.986,246.255,73.77"/>
	<path fill="#259FEA" d="M259.153,70.205c0,1.528-0.345,2.743-0.984,3.681c-0.749,1.083-1.84,1.623-3.292,1.623
		c-1.445,0-2.545-0.54-3.302-1.623c-0.633-0.938-0.963-2.153-0.963-3.681c0-1.527,0.329-2.759,0.963-3.696
		c0.741-1.083,1.839-1.643,3.302-1.643c1.469,0,2.561,0.559,3.292,1.643C258.808,67.446,259.153,68.679,259.153,70.205
		 M256.831,70.188c0-2.562-0.649-3.859-1.952-3.859c-1.308,0-1.956,1.298-1.956,3.859c0,2.498,0.648,3.747,1.956,3.747
		C256.18,73.936,256.831,72.686,256.831,70.188"/>
	<path fill="#259FEA" d="M149.713,52.731c-0.336,0.263-0.739,0.445-1.199,0.568c-0.451,0.122-0.993,0.179-1.651,0.179
		c-0.879,0-1.624-0.172-2.235-0.516c-0.613-0.343-1.115-0.805-1.485-1.381c-0.376-0.558-0.654-1.206-0.835-1.92
		c-0.175-0.723-0.264-1.454-0.264-2.202c0-0.739,0.091-1.461,0.272-2.183c0.189-0.723,0.466-1.363,0.861-1.922
		c0.397-0.577,0.888-1.035,1.511-1.381c0.617-0.344,1.355-0.525,2.244-0.525c1.164,0,2.101,0.23,2.782,0.707l-0.781,2.399
		c-0.14-0.082-0.288-0.139-0.461-0.181c-0.162-0.049-0.379-0.081-0.658-0.081c-0.334,0-0.615,0.1-0.836,0.279
		c-0.215,0.179-0.401,0.419-0.532,0.713c-0.132,0.296-0.231,0.634-0.291,1.012c-0.038,0.369-0.064,0.746-0.064,1.132
		c0,0.361,0.026,0.724,0.091,1.086c0.065,0.344,0.156,0.672,0.298,0.96c0.136,0.289,0.32,0.535,0.535,0.697
		c0.211,0.182,0.467,0.263,0.777,0.263c0.14,0,0.272-0.007,0.376-0.017c0.1-0.017,0.192-0.032,0.266-0.057
		c0.081-0.007,0.155-0.049,0.213-0.074c0.066-0.042,0.133-0.074,0.214-0.132L149.713,52.731z"/>
	<path fill="#259FEA" d="M158.369,48.676l-5.61,0.805c0.164,1.692,1.002,2.554,2.495,2.554c0.879,0,1.652-0.172,2.308-0.509
		l0.495,1.306c-0.781,0.427-1.79,0.648-3.013,0.648c-1.411,0-2.488-0.459-3.217-1.362c-0.698-0.837-1.038-1.987-1.038-3.415
		c0-1.372,0.296-2.472,0.904-3.294c0.682-0.953,1.694-1.427,3.006-1.427c1.339,0,2.315,0.46,2.941,1.395
		C158.162,46.179,158.42,47.279,158.369,48.676 M156.423,47.856c0-1.742-0.593-2.611-1.801-2.611c-0.756,0-1.303,0.36-1.65,1.1
		c-0.245,0.541-0.361,1.231-0.336,2.088L156.423,47.856z"/>
	<path fill="#259FEA" d="M167.474,53.307h-2.086v-6.488c0-1.034-0.541-1.536-1.65-1.536c-0.51,0-0.986,0.091-1.421,0.254v7.769
		h-2.068v-8.664c0.941-0.452,2.135-0.665,3.579-0.665c1.06,0,1.897,0.197,2.514,0.609c0.755,0.476,1.132,1.199,1.132,2.192
		L167.474,53.307L167.474,53.307z"/>
	<path fill="#259FEA" d="M173.796,53.226c-0.278,0.116-0.625,0.179-1.05,0.179c-0.788,0-1.404-0.213-1.848-0.657
		c-0.444-0.444-0.666-1.051-0.666-1.823v-5.452h-1.025v-1.33h1.025v-2.029l2.08-0.59v2.619h1.484v1.33h-1.484v5.338
		c0,0.789,0.327,1.184,0.992,1.184c0.133,0,0.304-0.017,0.492-0.074L173.796,53.226L173.796,53.226z"/>
	<path fill="#259FEA" d="M179.963,43.995l-0.402,1.51c-0.321-0.1-0.632-0.156-0.963-0.156c-0.401,0-0.72,0.074-0.976,0.23v7.727
		h-2.079v-8.664C176.555,44.15,178.028,43.93,179.963,43.995"/>
	<path fill="#259FEA" d="M188.619,48.742c0,1.345-0.296,2.447-0.872,3.268c-0.664,0.985-1.65,1.469-2.931,1.469
		c-1.297,0-2.277-0.484-2.948-1.469c-0.582-0.821-0.864-1.923-0.864-3.268c0-1.372,0.283-2.465,0.864-3.302
		c0.655-0.968,1.641-1.461,2.948-1.461c1.297,0,2.273,0.492,2.931,1.461C188.324,46.277,188.619,47.37,188.619,48.742
		 M186.557,48.715c0-2.282-0.575-3.433-1.741-3.433c-1.175,0-1.748,1.151-1.748,3.433c0,2.242,0.574,3.344,1.748,3.344
		C185.982,52.06,186.557,50.957,186.557,48.715"/>
	<path fill="#259FEA" d="M202.274,52.814c-0.795,0.436-1.863,0.665-3.195,0.665c-1.395,0-2.47-0.435-3.211-1.288
		c-0.704-0.821-1.059-1.938-1.059-3.358c0-1.355,0.329-2.464,0.969-3.327c0.714-0.968,1.726-1.446,3.039-1.446
		c0.535,0,0.995,0.066,1.387,0.173v-4.271h2.072v12.851H202.274z M200.203,51.946V45.35c-0.278-0.073-0.58-0.114-0.918-0.114
		c-1.618,0-2.413,1.157-2.413,3.48c0,2.292,0.746,3.441,2.257,3.441C199.629,52.157,199.991,52.075,200.203,51.946"/>
	<path fill="#259FEA" d="M211.719,48.676l-5.612,0.805c0.175,1.692,0.995,2.554,2.496,2.554c0.889,0,1.658-0.172,2.317-0.509
		l0.483,1.306c-0.771,0.427-1.79,0.648-3.022,0.648c-1.402,0-2.48-0.459-3.204-1.362c-0.693-0.837-1.033-1.987-1.033-3.415
		c0-1.372,0.296-2.472,0.896-3.294c0.691-0.953,1.692-1.427,3.007-1.427c1.335,0,2.313,0.46,2.946,1.395
		C211.527,46.179,211.758,47.279,211.719,48.676 M209.78,47.856c0-1.742-0.594-2.611-1.807-2.611c-0.747,0-1.298,0.36-1.642,1.1
		c-0.247,0.541-0.36,1.231-0.337,2.088L209.78,47.856z"/>
	<path fill="#259FEA" d="M222.614,46.41c-0.042-0.23-0.092-0.476-0.125-0.7c-0.022-0.229-0.049-0.401-0.065-0.515
		c-0.007-0.116-0.017-0.189-0.017-0.214h-0.032c0,0-0.025,0.14-0.05,0.427c-0.034,0.296-0.096,0.623-0.187,0.986l-0.799,3.185h1.973
		L222.614,46.41z M224.133,53.307l-0.329-1.511h-2.987l-0.377,1.511h-3.48l3.634-11.693h3.957l3.638,11.693
		C228.188,53.307,224.133,53.307,224.133,53.307z"/>
	<path fill="#259FEA" d="M236.565,48.61c0,1.362-0.322,2.48-0.963,3.334c-0.732,0.984-1.748,1.461-3.061,1.461
		c-0.599,0-1.06-0.057-1.381-0.171v3.728h-2.054V44.643c0.824-0.452,1.892-0.665,3.177-0.665c1.389,0,2.467,0.427,3.211,1.281
		C236.221,46.08,236.565,47.198,236.565,48.61 M234.512,48.676c0-2.299-0.754-3.456-2.282-3.456c-0.403,0-0.765,0.057-1.07,0.187
		v6.603c0.239,0.106,0.551,0.155,0.92,0.155C233.707,52.166,234.512,50.991,234.512,48.676"/>
	<path fill="#259FEA" d="M245.728,48.742c0,1.345-0.296,2.447-0.869,3.268c-0.674,0.985-1.657,1.469-2.94,1.469
		c-1.298,0-2.268-0.484-2.938-1.469c-0.584-0.821-0.873-1.923-0.873-3.268c0-1.372,0.288-2.465,0.873-3.302
		c0.654-0.968,1.625-1.461,2.938-1.461c1.298,0,2.283,0.492,2.94,1.461C245.432,46.277,245.728,47.37,245.728,48.742
		 M243.669,48.715c0-2.282-0.583-3.433-1.749-3.433c-1.167,0-1.751,1.151-1.751,3.433c0,2.242,0.584,3.344,1.751,3.344
		C243.086,52.06,243.669,50.957,243.669,48.715"/>
	<path fill="#259FEA" d="M249.842,41.549c0,0.296-0.106,0.542-0.328,0.722c-0.23,0.198-0.502,0.296-0.804,0.296
		s-0.566-0.098-0.797-0.296c-0.231-0.179-0.337-0.427-0.337-0.722c0-0.295,0.106-0.542,0.337-0.739
		c0.231-0.198,0.494-0.295,0.797-0.295s0.574,0.097,0.804,0.288C249.736,40.989,249.842,41.236,249.842,41.549 M249.743,53.307
		h-2.068v-9.164h2.068V53.307z"/>
	<path fill="#259FEA" d="M259.286,48.742c0,1.345-0.279,2.447-0.863,3.268c-0.665,0.985-1.649,1.469-2.938,1.469
		c-1.281,0-2.277-0.484-2.948-1.469c-0.567-0.821-0.861-1.923-0.861-3.268c0-1.372,0.294-2.465,0.861-3.302
		c0.673-0.968,1.644-1.461,2.948-1.461s2.292,0.492,2.938,1.461C259.006,46.277,259.286,47.37,259.286,48.742 M257.241,48.715
		c0-2.282-0.593-3.433-1.757-3.433c-1.175,0-1.756,1.151-1.756,3.433c0,2.242,0.58,3.344,1.756,3.344
		C256.648,52.06,257.241,50.957,257.241,48.715"/>
</g>
<g>
	<polygon fill="#259FEA" points="12.778,35.225 73.698,6.123 134.624,35.225 134.624,38.939 73.698,9.844 12.778,38.939 	"/>
	<path fill="#259FEA" d="M30.064,76.292h-6.231v-6.875c0.454,1.09,1.007,2.112,1.657,3.07
		C26.665,74.233,28.196,75.503,30.064,76.292 M111.289,58.104l1.895,8.611h-5.337l2.161-8.653c0.307-1.168,0.497-1.983,0.553-2.44
		l0.181-1.384c0.07,0.493,0.125,1.077,0.21,1.745C111.029,56.667,111.141,57.366,111.289,58.104 M58.747,58.104l1.888,8.611h-5.343
		l2.17-8.653c0.306-1.168,0.489-1.983,0.553-2.44l0.179-1.384c0.064,0.493,0.14,1.077,0.21,1.745
		C58.474,56.667,58.6,57.366,58.747,58.104 M62.742,76.292h-9.764l0.889-3.594h8.106L62.742,76.292z M115.288,76.292h-9.764
		l0.895-3.594h8.099L115.288,76.292z M23.833,39.593L73.708,15.77l49.863,23.822v28.112l-7.03-22.581h-10.723l-9.695,31.169h-7.44
		c1.183-0.486,2.231-1.161,3.174-2.027c2.182-1.997,3.273-4.495,3.273-7.508c0-2.175-0.441-4.008-1.314-5.499
		c-0.874-1.485-2.56-2.861-5.064-4.12c-2.504-1.256-3.741-2.46-3.741-3.592c0-1.168,0.81-1.745,2.433-1.745
		c0.797,0,1.581,0.122,2.363,0.385c0.784,0.267,1.483,0.559,2.099,0.899l2.161-6.488c-1.007-0.616-2.19-1.087-3.517-1.426
		c-1.336-0.343-2.938-0.511-4.813-0.511c-3.378,0-6.086,1.029-8.128,3.071c-2.042,2.036-3.062,4.557-3.062,7.562
		c0,1.748,0.462,3.435,1.386,5.018c0.923,1.598,2.209,2.819,3.86,3.665c1.657,0.843,2.727,1.5,3.204,1.981
		c0.476,0.482,0.72,1.022,0.72,1.636c0,1.134-0.832,1.7-2.497,1.7c-0.791,0-1.665-0.175-2.594-0.508
		c-0.937-0.336-1.623-0.675-2.051-1.007l-2.357,7.502c0.609,0.396,1.323,0.738,2.134,1.014h-2.652l-9.7-31.169H53.279L43.57,76.296
		h-2.399c0.692-0.293,1.322-0.643,1.859-1.062l-2.3-6.949c-0.552,0.3-0.992,0.504-1.314,0.599c-0.322,0.091-0.847,0.139-1.588,0.139
		c-1.56,0-2.721-0.797-3.483-2.4c-0.75-1.591-1.119-3.51-1.119-5.755c0-2.421,0.364-4.438,1.077-6.051
		c0.722-1.608,1.93-2.416,3.608-2.416c0.749,0,1.322,0.057,1.735,0.161c0.412,0.111,0.84,0.283,1.265,0.527l2.118-6.488
		c-1.844-1.29-4.357-1.938-7.552-1.938c-4.42,0-7.729,1.598-9.925,4.791c-0.672,0.99-1.252,2.043-1.721,3.155
		C23.833,52.605,23.833,39.593,23.833,39.593z"/>
</g>
</svg>
